<?xml version="1.0" encoding="utf-8"?>
<!-- Generator: Adobe Illustrator 27.1.1, SVG Export Plug-In . SVG Version: 6.00 Build 0)  -->
<svg version="1.1" xmlns="http://www.w3.org/2000/svg" xmlns:xlink="http://www.w3.org/1999/xlink" x="0px" y="0px"
	 viewBox="0 0 278 65" style="enable-background:new 0 0 278 65;" xml:space="preserve">
<style type="text/css">
	.st0{fill:#199B9B;}
	.st1{fill:#3D3D3C;}
	.st2{display:none;}
	.st3{display:inline;fill:#4DA7A3;}
	.st4{display:inline;}
	.st5{fill:#4DA7A3;}
	.st6{fill:#575756;}
</style>
<g id="Ebene_1">
	<path class="st0" d="M70.16,12.61h11.09v11.38c0,1.63,0.13,2.69,0.39,3.16c0.26,0.47,0.74,0.71,1.45,0.71
		c0.67,0,1.14-0.22,1.4-0.67c0.26-0.45,0.39-1.51,0.39-3.19V12.61h11.09v12.52c0,4.02-1.03,6.96-3.09,8.82
		c-2.06,1.86-5.32,2.79-9.79,2.79c-4.48,0-7.76-0.93-9.83-2.79c-2.07-1.86-3.11-4.8-3.11-8.82V12.61z"/>
	<path class="st0" d="M96.89,34.2l3.01-7.17c1.25,0.84,2.39,1.48,3.42,1.92c1.04,0.44,1.92,0.65,2.66,0.65
		c0.6,0,1.06-0.12,1.37-0.35c0.32-0.23,0.47-0.56,0.47-0.98c0-0.59-0.67-1.01-2-1.29c-0.45-0.09-0.8-0.17-1.06-0.23
		c-2.19-0.54-3.79-1.34-4.78-2.4c-1-1.06-1.5-2.46-1.5-4.2c0-2.45,1.01-4.44,3.04-5.99c2.03-1.55,4.67-2.32,7.94-2.32
		c1.63,0,3.19,0.15,4.68,0.46c1.49,0.31,2.89,0.77,4.19,1.38l-2.76,6.99c-1.05-0.71-1.99-1.24-2.83-1.59
		c-0.84-0.35-1.56-0.53-2.18-0.53c-0.51,0-0.92,0.11-1.23,0.33c-0.31,0.22-0.47,0.51-0.47,0.87c0,0.59,0.88,1.07,2.65,1.44
		c0.42,0.09,0.75,0.17,0.99,0.23c2.26,0.54,3.92,1.33,4.99,2.37c1.06,1.04,1.59,2.4,1.59,4.08c0,2.61-1.05,4.74-3.15,6.38
		c-2.1,1.64-4.87,2.46-8.32,2.46c-1.87,0-3.71-0.21-5.51-0.64C100.31,35.67,98.57,35.04,96.89,34.2z"/>
	<path class="st0" d="M121.15,1.03h11.06v10.81c0,0.94-0.02,1.75-0.06,2.41c-0.04,0.66-0.09,1.22-0.17,1.69
		c0.93-1.33,1.99-2.33,3.17-3c1.18-0.67,2.51-1,3.96-1c2.73,0,4.98,1.14,6.75,3.42c1.77,2.28,2.66,5.22,2.66,8.83
		c0,3.79-0.86,6.83-2.59,9.12c-1.73,2.29-4,3.44-6.82,3.44c-1.53,0-2.92-0.36-4.17-1.07c-1.25-0.71-2.37-1.79-3.34-3.23v3.42h-10.45
		V1.03z M137.94,24.17c0-1.05-0.28-1.9-0.83-2.54c-0.55-0.64-1.29-0.95-2.19-0.95c-0.91,0-1.64,0.32-2.19,0.95
		c-0.56,0.64-0.83,1.48-0.83,2.54c0,1.05,0.28,1.91,0.83,2.58c0.55,0.67,1.29,1,2.19,1c0.89,0,1.62-0.33,2.18-1
		C137.66,26.09,137.94,25.23,137.94,24.17z"/>
	<path class="st0" d="M150.65,12.61h11.09v11.38c0,1.63,0.13,2.69,0.39,3.16c0.26,0.47,0.74,0.71,1.45,0.71
		c0.67,0,1.14-0.22,1.4-0.67c0.26-0.45,0.39-1.51,0.39-3.19V12.61h11.09v12.52c0,4.02-1.03,6.96-3.09,8.82
		c-2.06,1.86-5.32,2.79-9.79,2.79c-4.48,0-7.76-0.93-9.83-2.79c-2.07-1.86-3.11-4.8-3.11-8.82V12.61z"/>
	<path class="st0" d="M178.92,35.86V12.61h10.96v3.26c0.97-1.33,2.06-2.33,3.26-3c1.2-0.67,2.52-1,3.98-1c0.23,0,0.39,0,0.51,0.01
		c0.11,0.01,0.21,0.02,0.3,0.03v11.28c-0.63-0.35-1.21-0.6-1.73-0.77c-0.52-0.17-1-0.25-1.44-0.25c-1.44,0-2.55,0.39-3.34,1.17
		c-0.79,0.78-1.18,1.88-1.18,3.29v9.23H178.92z"/>
	<path class="st0" d="M216.28,33.75v-2.02c-1.05,1.15-2.16,2.01-3.33,2.56c-1.17,0.55-2.46,0.83-3.87,0.83
		c-2.71,0-4.96-1.02-6.72-3.07c-1.77-2.05-2.65-4.67-2.65-7.88c0-3.72,0.86-6.7,2.58-8.94c1.72-2.24,3.98-3.36,6.8-3.36
		c1.45,0,2.77,0.3,3.95,0.91c1.18,0.61,2.26,1.55,3.25,2.82v-2.98h10.8v19.88c0,2.05-0.09,3.58-0.27,4.6
		c-0.18,1.01-0.47,1.94-0.88,2.78c-0.97,2.01-2.67,3.52-5.09,4.55c-2.42,1.03-5.51,1.54-9.27,1.54c-2.1,0-4.05-0.18-5.85-0.55
		c-1.8-0.37-3.46-0.91-4.95-1.63l2.43-7.51c1.29,0.81,2.55,1.41,3.79,1.81c1.24,0.4,2.46,0.59,3.67,0.59c1.83,0,3.22-0.42,4.18-1.25
		C215.8,36.56,216.28,35.35,216.28,33.75z M210.29,23.44c0,1,0.28,1.8,0.84,2.39c0.56,0.59,1.32,0.89,2.26,0.89
		c0.96,0,1.72-0.3,2.3-0.89c0.57-0.59,0.86-1.39,0.86-2.39c0-0.98-0.29-1.78-0.87-2.4c-0.58-0.62-1.34-0.93-2.28-0.93
		c-0.93,0-1.68,0.3-2.25,0.91C210.58,21.63,210.29,22.44,210.29,23.44z"/>
	<path class="st0" d="M258.56,35.86V12.61h10.96v3.26c0.97-1.33,2.06-2.33,3.26-3c1.2-0.67,2.52-1,3.98-1c0.23,0,0.39,0,0.51,0.01
		c0.11,0.01,0.21,0.02,0.3,0.03v11.28c-0.63-0.35-1.21-0.6-1.73-0.77c-0.52-0.17-1-0.25-1.44-0.25c-1.44,0-2.55,0.39-3.34,1.17
		c-0.79,0.78-1.18,1.88-1.18,3.29v9.23H258.56z"/>
	<g>
		<g>
			<path class="st0" d="M0.72,35.86V22.91l10.3-8.75c0,0,2.75-2.51,6.35-2.51c3.6,0,5.32,1.77,5.32,1.77l-8.41,7.64
				c0,0-1.15-1.22-2.57-0.19c-1.16,0.84-0.95,2.14-0.95,2.14v12.85H0.72z"/>
			<polygon class="st0" points="0.72,20.4 0.72,12.67 9.99,12.67 			"/>
			<path class="st0" d="M14.88,35.86V23.1l9.27-8.57c0,0,5.41-5.02,11.67-1.86c3.69,1.86,3.26,5.96,3.26,5.96v17.22h-9.96V22.54
				c0,0,0.04-2.33-2.01-2.33c-2.22,0-2.14,2.33-2.14,2.33v13.31H14.88z"/>
		</g>
	</g>
	<path class="st0" d="M256.02,20.93c-0.34-1.18-0.84-2.25-1.52-3.23c-1.32-1.9-2.97-3.35-4.95-4.35c-1.98-1-4.21-1.5-6.7-1.5
		c-1.81,0-3.5,0.27-5.06,0.81c-1.56,0.54-2.96,1.34-4.2,2.41c-1.38,1.18-2.45,2.58-3.2,4.17c-0.76,1.6-1.14,3.28-1.14,5.05
		c0,1.75,0.37,3.43,1.12,5.02c0.75,1.59,1.82,2.99,3.22,4.21c1.24,1.05,2.65,1.85,4.22,2.4c1.57,0.55,3.25,0.82,5.05,0.82
		c3.24,0,5.97-0.68,8.21-2.05c2.23-1.37,3.81-3.31,4.72-5.84l-10.47-0.7c-0.22,0.59-0.53,1.04-0.92,1.35
		c-0.39,0.31-0.85,0.47-1.37,0.47c-0.87,0-1.52-0.29-1.94-0.87c-0.43-0.58-0.64-1.46-0.64-2.65v-0.36l16.04-0.02
		c0.02-0.13,0.03-0.29,0.03-0.47c0.01-0.18,0.01-0.45,0.01-0.81C256.53,23.39,256.36,22.11,256.02,20.93z M240.53,21.01
		c0.12-0.86,0.4-1.96,0.84-2.42c0.44-0.46,1.02-0.69,1.74-0.69c0.81,0,1.42,0.22,1.83,0.65c0.41,0.44,0.64,1.56,0.69,2.47
		L240.53,21.01z"/>
	<path class="st0" d="M67.93,20.93c-0.34-1.18-0.84-2.25-1.52-3.23c-1.32-1.9-2.97-3.35-4.95-4.35c-1.98-1-4.21-1.5-6.7-1.5
		c-1.81,0-3.5,0.27-5.06,0.81c-1.56,0.54-2.96,1.34-4.2,2.41c-1.38,1.18-2.45,2.58-3.2,4.17c-0.76,1.6-1.14,3.28-1.14,5.05
		c0,1.75,0.37,3.43,1.12,5.02c0.75,1.59,1.82,2.99,3.22,4.21c1.24,1.05,2.65,1.85,4.22,2.4c1.57,0.55,3.25,0.82,5.05,0.82
		c3.24,0,5.97-0.68,8.21-2.05c2.23-1.37,3.81-3.31,4.72-5.84l-10.47-0.7c-0.23,0.59-0.53,1.04-0.92,1.35s-0.85,0.47-1.37,0.47
		c-0.87,0-1.52-0.29-1.94-0.87c-0.43-0.58-0.64-1.46-0.64-2.65v-0.36l16.04-0.02c0.02-0.13,0.03-0.29,0.03-0.47
		c0.01-0.18,0.01-0.45,0.01-0.81C68.43,23.39,68.26,22.11,67.93,20.93z M52.5,21.01c0.12-0.86,0.4-1.96,0.84-2.42
		c0.44-0.46,1.02-0.69,1.74-0.69c0.81,0,1.42,0.22,1.83,0.65c0.41,0.44,0.64,1.56,0.69,2.47L52.5,21.01z"/>
	<g>
		<path class="st1" d="M1.23,58.29h0.85c0.18,1.55,1.36,2.54,3.12,2.54c1.74,0,3.11-0.88,3.11-2.39c0-1.01-0.8-1.86-2.09-2.04
			L4.4,56.14c-1.64-0.23-2.79-1.08-2.79-2.7c0-1.74,1.76-3.01,3.67-3.01c2.08,0,3.56,1.3,3.7,3.06h-0.8
			c-0.21-1.51-1.42-2.3-2.92-2.3c-1.58,0-2.82,0.92-2.82,2.23c0,1.24,0.89,1.73,2.05,1.89l1.85,0.26c1.65,0.23,2.8,1.36,2.8,2.85
			c0,1.91-1.68,3.18-3.92,3.18C3.06,61.59,1.32,60.26,1.23,58.29z"/>
		<path class="st1" d="M12.24,59.41v-4.91h-1.79v-0.7h1.79v-2.09L13,51.53v2.27h2.38v0.7H13v4.8c0,0.83,0.26,1.47,1.36,1.47
			c0.41,0,0.73-0.05,1.12-0.14v0.67c-0.38,0.12-0.76,0.18-1.18,0.18C12.82,61.49,12.24,60.62,12.24,59.41z"/>
		<path class="st1" d="M16.84,59.28c0-1.35,1.03-2.18,2.54-2.29l2.79-0.2v-0.67c0-1.27-0.92-1.82-2.09-1.82
			c-1.14,0-2.08,0.55-2.15,1.68h-0.76c0.11-1.56,1.36-2.39,2.88-2.39c1.73,0,2.88,0.85,2.88,2.59v3.74c0,0.52,0.08,0.82,0.59,0.82
			c0.06,0,0.15,0,0.21-0.01v0.67c-0.11,0.03-0.24,0.05-0.36,0.05c-0.94,0-1.2-0.71-1.2-1.51c-0.41,1.08-1.56,1.67-2.73,1.67
			C17.97,61.59,16.84,60.7,16.84,59.28z M22.17,57.88v-0.39l-2.71,0.17c-1.17,0.07-1.85,0.71-1.85,1.61c0,1.06,0.82,1.64,1.89,1.64
			C21.41,60.9,22.17,59.35,22.17,57.88z"/>
		<path class="st1" d="M25.93,53.81h0.7l0.06,1.45c0.39-1.05,1.58-1.67,2.64-1.67c1.73,0,2.68,1.15,2.68,2.83v4.95h-0.76V56.5
			c0-1.27-0.65-2.17-2-2.17c-1.68,0-2.56,1.39-2.56,3.08v3.97h-0.76V53.81z"/>
		<path class="st1" d="M35.64,60.87c-0.88-0.74-1.27-1.95-1.27-3.26c0-1.24,0.39-2.41,1.21-3.18c0.53-0.5,1.27-0.83,2.21-0.83
			c1.23,0,2.17,0.68,2.51,1.53v-4.71h0.77v10.97h-0.71l-0.06-1.44c-0.42,1.01-1.53,1.65-2.57,1.65
			C36.83,61.59,36.15,61.31,35.64,60.87z M39.33,60.23c0.71-0.65,0.99-1.59,0.99-2.64c0-1.12-0.26-2-0.97-2.65
			c-0.39-0.36-0.92-0.61-1.64-0.61c-0.73,0-1.29,0.26-1.7,0.68c-0.61,0.64-0.88,1.61-0.88,2.57c0,1.08,0.3,2.11,1.03,2.71
			c0.39,0.33,0.92,0.55,1.58,0.55C38.42,60.85,38.94,60.59,39.33,60.23z"/>
		<path class="st1" d="M43.43,59.28c0-1.35,1.03-2.18,2.54-2.29l2.79-0.2v-0.67c0-1.27-0.92-1.82-2.09-1.82
			c-1.14,0-2.08,0.55-2.15,1.68h-0.76c0.11-1.56,1.36-2.39,2.88-2.39c1.73,0,2.88,0.85,2.88,2.59v3.74c0,0.52,0.08,0.82,0.59,0.82
			c0.06,0,0.15,0,0.21-0.01v0.67c-0.11,0.03-0.24,0.05-0.36,0.05c-0.94,0-1.2-0.71-1.2-1.51c-0.41,1.08-1.56,1.67-2.73,1.67
			C44.56,61.59,43.43,60.7,43.43,59.28z M48.76,57.88v-0.39l-2.71,0.17c-1.17,0.07-1.85,0.71-1.85,1.61c0,1.06,0.82,1.64,1.89,1.64
			C48,60.9,48.76,59.35,48.76,57.88z"/>
		<path class="st1" d="M52.52,53.81h0.7l0.06,1.56c0.33-1.06,1.36-1.64,2.44-1.64c0.23,0,0.48,0,0.71,0.08v0.73
			c-0.24-0.06-0.5-0.08-0.74-0.08c-1.76,0-2.41,1.45-2.41,3.14v3.79h-0.76V53.81z"/>
		<path class="st1" d="M58.82,60.87c-0.88-0.74-1.27-1.95-1.27-3.26c0-1.24,0.39-2.41,1.21-3.18c0.53-0.5,1.27-0.83,2.21-0.83
			c1.23,0,2.17,0.68,2.52,1.53v-4.71h0.77v10.97h-0.71l-0.06-1.44c-0.42,1.01-1.53,1.65-2.58,1.65
			C60.02,61.59,59.33,61.31,58.82,60.87z M62.52,60.23c0.71-0.65,0.98-1.59,0.98-2.64c0-1.12-0.26-2-0.97-2.65
			c-0.39-0.36-0.92-0.61-1.64-0.61c-0.73,0-1.29,0.26-1.7,0.68c-0.61,0.64-0.88,1.61-0.88,2.57c0,1.08,0.3,2.11,1.03,2.71
			c0.39,0.33,0.92,0.55,1.58,0.55C61.61,60.85,62.12,60.59,62.52,60.23z"/>
		<path class="st1" d="M66.55,59.08h0.77c0.12,1.24,1.11,1.79,2.35,1.79c1.26,0,2.2-0.54,2.2-1.58c0-0.67-0.47-1.23-1.39-1.35
			L69,57.75c-1.27-0.17-2.14-0.77-2.14-1.92c0-1.35,1.3-2.23,2.73-2.23c1.64,0,2.82,0.94,2.86,2.3H71.7c-0.11-1.09-1-1.59-2.11-1.59
			c-1.11,0-1.95,0.59-1.95,1.44c0,0.62,0.33,1.09,1.47,1.24l1.44,0.2c1.42,0.2,2.09,1.15,2.09,2.06c0,1.55-1.39,2.35-2.97,2.35
			C67.86,61.59,66.62,60.64,66.55,59.08z"/>
		<path class="st1" d="M79.27,54.51h-1.61v-0.7h1.61v-1.29c0-1.15,0.73-2.17,2.18-2.17c0.44,0,0.79,0.05,1.08,0.12v0.68
			c-0.27-0.08-0.58-0.12-1.02-0.12c-0.98,0-1.48,0.55-1.48,1.51v1.26h2.35v0.7h-2.35v6.88h-0.76V54.51z"/>
		<path class="st1" d="M84.61,60.7c-0.83-0.8-1.15-1.8-1.15-3.11c0-1.29,0.32-2.3,1.15-3.1c0.55-0.52,1.3-0.89,2.27-0.89
			c0.97,0,1.73,0.38,2.27,0.89c0.83,0.8,1.15,1.82,1.15,3.1c0,1.3-0.32,2.3-1.15,3.11c-0.55,0.52-1.3,0.89-2.27,0.89
			C85.91,61.59,85.15,61.22,84.61,60.7z M88.62,60.19c0.71-0.7,0.91-1.59,0.91-2.59c0-0.98-0.2-1.89-0.91-2.59
			c-0.41-0.41-0.98-0.67-1.74-0.67S85.55,54.6,85.14,55c-0.71,0.7-0.91,1.61-0.91,2.59c0,1,0.2,1.89,0.91,2.59
			c0.41,0.41,0.98,0.67,1.74,0.67S88.21,60.59,88.62,60.19z"/>
		<path class="st1" d="M92.77,53.81h0.7l0.06,1.56c0.33-1.06,1.36-1.64,2.44-1.64c0.23,0,0.48,0,0.71,0.08v0.73
			c-0.24-0.06-0.5-0.08-0.74-0.08c-1.76,0-2.41,1.45-2.41,3.14v3.79h-0.76V53.81z"/>
		<path class="st1" d="M101.02,64.34v-0.74c0.27,0.14,0.61,0.23,0.99,0.23c0.73,0,1.18-0.33,1.53-1.21l0.44-1.11l-3.09-7.7h0.83
			l2.62,6.73l2.53-6.73h0.8l-3.47,9.06c-0.47,1.23-1.15,1.68-2.15,1.68C101.56,64.55,101.14,64.41,101.02,64.34z"/>
		<path class="st1" d="M110.09,60.7c-0.83-0.8-1.15-1.8-1.15-3.11c0-1.29,0.32-2.3,1.15-3.1c0.55-0.52,1.3-0.89,2.27-0.89
			s1.73,0.38,2.27,0.89c0.83,0.8,1.15,1.82,1.15,3.1c0,1.3-0.32,2.3-1.15,3.11c-0.55,0.52-1.3,0.89-2.27,0.89
			S110.64,61.22,110.09,60.7z M114.11,60.19c0.71-0.7,0.91-1.59,0.91-2.59c0-0.98-0.2-1.89-0.91-2.59
			c-0.41-0.41-0.99-0.67-1.74-0.67s-1.33,0.26-1.74,0.67c-0.71,0.7-0.91,1.61-0.91,2.59c0,1,0.2,1.89,0.91,2.59
			c0.41,0.41,0.99,0.67,1.74,0.67S113.7,60.59,114.11,60.19z"/>
		<path class="st1" d="M118.17,58.7v-4.89h0.76v4.85c0,1.32,0.65,2.2,1.98,2.2c1.76,0,2.48-1.41,2.48-3.11v-3.94h0.76v7.57h-0.7
			l-0.06-1.42c-0.42,1-1.39,1.63-2.53,1.63C119.15,61.59,118.17,60.4,118.17,58.7z"/>
		<path class="st1" d="M127.12,53.81h0.7l0.06,1.56c0.33-1.06,1.36-1.64,2.44-1.64c0.23,0,0.48,0,0.71,0.08v0.73
			c-0.24-0.06-0.5-0.08-0.74-0.08c-1.76,0-2.41,1.45-2.41,3.14v3.79h-0.76V53.81z"/>
		<path class="st1" d="M135.88,59.08h0.77c0.12,1.24,1.11,1.79,2.35,1.79c1.26,0,2.2-0.54,2.2-1.58c0-0.67-0.47-1.23-1.39-1.35
			l-1.47-0.2c-1.27-0.17-2.13-0.77-2.13-1.92c0-1.35,1.3-2.23,2.73-2.23c1.64,0,2.82,0.94,2.86,2.3h-0.76
			c-0.11-1.09-1-1.59-2.11-1.59c-1.11,0-1.95,0.59-1.95,1.44c0,0.62,0.33,1.09,1.47,1.24l1.44,0.2c1.42,0.2,2.09,1.15,2.09,2.06
			c0,1.55-1.39,2.35-2.97,2.35C137.2,61.59,135.95,60.64,135.88,59.08z"/>
		<path class="st1" d="M144.15,58.7v-4.89h0.76v4.85c0,1.32,0.65,2.2,1.98,2.2c1.76,0,2.48-1.41,2.48-3.11v-3.94h0.76v7.57h-0.7
			l-0.06-1.42c-0.42,1-1.39,1.63-2.53,1.63C145.14,61.59,144.15,60.4,144.15,58.7z"/>
		<path class="st1" d="M153.7,60.69c-0.8-0.8-1.09-1.8-1.09-3.09c0-1.3,0.27-2.32,1.09-3.1c0.55-0.53,1.32-0.89,2.29-0.89
			c1.61,0,2.83,0.99,3.02,2.56h-0.8c-0.17-1.04-1.03-1.82-2.21-1.82c-0.74,0-1.33,0.24-1.74,0.65c-0.71,0.71-0.86,1.61-0.86,2.6
			c0,0.99,0.17,1.88,0.88,2.59c0.41,0.41,1,0.65,1.74,0.65c1.18,0,2.04-0.77,2.21-1.82H159c-0.2,1.56-1.42,2.56-3.02,2.56
			C155.01,61.58,154.24,61.23,153.7,60.69z"/>
		<path class="st1" d="M161.92,60.69c-0.8-0.8-1.09-1.8-1.09-3.09c0-1.3,0.27-2.32,1.09-3.1c0.55-0.53,1.32-0.89,2.29-0.89
			c1.61,0,2.83,0.99,3.02,2.56h-0.8c-0.17-1.04-1.03-1.82-2.21-1.82c-0.74,0-1.33,0.24-1.74,0.65c-0.71,0.71-0.86,1.61-0.86,2.6
			c0,0.99,0.17,1.88,0.88,2.59c0.41,0.41,1,0.65,1.74,0.65c1.18,0,2.04-0.77,2.21-1.82h0.79c-0.2,1.56-1.42,2.56-3.02,2.56
			C163.24,61.58,162.47,61.23,161.92,60.69z"/>
		<path class="st1" d="M170.07,60.53c-0.62-0.73-1-1.76-1-2.91c0-0.95,0.15-1.89,0.76-2.7c0.65-0.86,1.54-1.33,2.65-1.33
			c2.09,0,3.35,1.67,3.35,3.68c0,0.18,0,0.29-0.02,0.5h-5.98c0.03,1.68,1.01,3.09,2.71,3.09c1.2,0,2.14-0.79,2.32-1.76h0.79
			c-0.23,1.42-1.59,2.48-3.11,2.48C171.45,61.59,170.57,61.11,170.07,60.53z M175.04,57.1c-0.03-1.44-0.92-2.79-2.56-2.79
			c-1.61,0-2.61,1.3-2.64,2.79H175.04z"/>
		<path class="st1" d="M177.57,59.08h0.77c0.12,1.24,1.11,1.79,2.35,1.79c1.26,0,2.2-0.54,2.2-1.58c0-0.67-0.47-1.23-1.39-1.35
			l-1.47-0.2c-1.27-0.17-2.14-0.77-2.14-1.92c0-1.35,1.3-2.23,2.73-2.23c1.64,0,2.82,0.94,2.86,2.3h-0.76
			c-0.11-1.09-1-1.59-2.11-1.59s-1.95,0.59-1.95,1.44c0,0.62,0.33,1.09,1.47,1.24l1.44,0.2c1.42,0.2,2.09,1.15,2.09,2.06
			c0,1.55-1.4,2.35-2.97,2.35C178.89,61.59,177.65,60.64,177.57,59.08z"/>
		<path class="st1" d="M185.33,59.08h0.77c0.12,1.24,1.11,1.79,2.35,1.79c1.26,0,2.2-0.54,2.2-1.58c0-0.67-0.47-1.23-1.39-1.35
			l-1.47-0.2c-1.27-0.17-2.13-0.77-2.13-1.92c0-1.35,1.3-2.23,2.73-2.23c1.64,0,2.82,0.94,2.86,2.3h-0.76
			c-0.11-1.09-1-1.59-2.11-1.59c-1.11,0-1.95,0.59-1.95,1.44c0,0.62,0.33,1.09,1.47,1.24l1.44,0.2c1.42,0.2,2.09,1.15,2.09,2.06
			c0,1.55-1.39,2.35-2.97,2.35C186.65,61.59,185.41,60.64,185.33,59.08z"/>
		<path class="st1" d="M194.7,60.02v1.36h-1.33v-1.36H194.7z"/>
	</g>
</g>
<g id="Ebene_2" class="st2">
	<path class="st3" d="M91.19,8.02h7.69v7.88c0,1.13,0.09,1.86,0.27,2.19c0.18,0.33,0.52,0.49,1,0.49c0.47,0,0.79-0.16,0.97-0.47
		c0.18-0.31,0.27-1.05,0.27-2.21V8.02h7.69v8.68c0,2.79-0.71,4.82-2.14,6.11c-1.43,1.29-3.69,1.93-6.78,1.93
		c-3.1,0-5.37-0.64-6.81-1.93c-1.44-1.29-2.16-3.33-2.16-6.11V8.02z"/>
	<path class="st3" d="M109.72,22.99l2.08-4.97c0.86,0.58,1.65,1.03,2.37,1.33c0.72,0.3,1.33,0.45,1.84,0.45
		c0.42,0,0.73-0.08,0.95-0.24c0.22-0.16,0.33-0.39,0.33-0.68c0-0.41-0.46-0.7-1.39-0.89c-0.31-0.06-0.56-0.11-0.73-0.16
		c-1.52-0.37-2.62-0.93-3.32-1.66c-0.69-0.73-1.04-1.7-1.04-2.91c0-1.69,0.7-3.08,2.11-4.15c1.41-1.07,3.24-1.61,5.5-1.61
		c1.13,0,2.21,0.11,3.24,0.32c1.03,0.21,2,0.53,2.9,0.96l-1.91,4.85c-0.73-0.49-1.38-0.86-1.96-1.1c-0.58-0.24-1.08-0.37-1.51-0.37
		c-0.35,0-0.64,0.08-0.86,0.23s-0.33,0.35-0.33,0.6c0,0.41,0.61,0.74,1.84,1c0.29,0.06,0.52,0.11,0.68,0.16
		c1.57,0.37,2.72,0.92,3.46,1.65c0.74,0.72,1.11,1.67,1.11,2.83c0,1.81-0.73,3.28-2.18,4.42c-1.45,1.14-3.38,1.71-5.76,1.71
		c-1.3,0-2.57-0.15-3.82-0.44C112.08,24.01,110.88,23.57,109.72,22.99z"/>
	<path class="st3" d="M126.53,0h7.66v7.49c0,0.65-0.01,1.21-0.04,1.67c-0.03,0.46-0.06,0.85-0.12,1.17c0.64-0.92,1.38-1.62,2.2-2.08
		c0.82-0.46,1.74-0.69,2.74-0.69c1.89,0,3.45,0.79,4.68,2.37c1.23,1.58,1.84,3.62,1.84,6.12c0,2.63-0.6,4.74-1.79,6.32
		c-1.2,1.59-2.77,2.38-4.73,2.38c-1.06,0-2.02-0.25-2.89-0.74c-0.87-0.49-1.64-1.24-2.32-2.24v2.37h-7.24V0z M138.17,16.04
		c0-0.73-0.19-1.32-0.58-1.76c-0.38-0.44-0.89-0.66-1.52-0.66c-0.63,0-1.14,0.22-1.52,0.66c-0.38,0.44-0.58,1.03-0.58,1.76
		c0,0.73,0.19,1.33,0.58,1.79c0.38,0.46,0.89,0.69,1.52,0.69c0.62,0,1.12-0.23,1.51-0.69C137.97,17.37,138.17,16.77,138.17,16.04z"
		/>
	<path class="st3" d="M146.97,8.02h7.69v7.88c0,1.13,0.09,1.86,0.27,2.19c0.18,0.33,0.52,0.49,1,0.49c0.47,0,0.79-0.16,0.97-0.47
		c0.18-0.31,0.27-1.05,0.27-2.21V8.02h7.69v8.68c0,2.79-0.71,4.82-2.14,6.11c-1.43,1.29-3.69,1.93-6.78,1.93
		c-3.1,0-5.37-0.64-6.81-1.93c-1.44-1.29-2.16-3.33-2.16-6.11V8.02z"/>
	<path class="st3" d="M166.57,24.14V8.02h7.6v2.26c0.68-0.92,1.43-1.62,2.26-2.08c0.83-0.46,1.75-0.69,2.76-0.69
		c0.16,0,0.27,0,0.35,0.01c0.08,0.01,0.15,0.01,0.21,0.02v7.82c-0.44-0.24-0.84-0.42-1.2-0.53c-0.36-0.11-0.7-0.17-1-0.17
		c-1,0-1.77,0.27-2.31,0.81c-0.55,0.54-0.82,1.3-0.82,2.28v6.4H166.57z"/>
	<path class="st3" d="M192.45,22.67v-1.4c-0.73,0.8-1.5,1.39-2.31,1.77c-0.81,0.38-1.7,0.58-2.68,0.58c-1.88,0-3.43-0.71-4.66-2.13
		c-1.23-1.42-1.84-3.24-1.84-5.46c0-2.58,0.59-4.64,1.78-6.2c1.19-1.55,2.76-2.33,4.71-2.33c1.01,0,1.92,0.21,2.73,0.63
		c0.82,0.42,1.57,1.07,2.25,1.95V8.02h7.48V21.8c0,1.42-0.06,2.48-0.19,3.18c-0.12,0.7-0.33,1.34-0.61,1.92
		c-0.67,1.39-1.85,2.44-3.53,3.15c-1.68,0.71-3.82,1.07-6.42,1.07c-1.45,0-2.8-0.13-4.06-0.38c-1.25-0.25-2.39-0.63-3.43-1.13
		l1.68-5.21c0.89,0.56,1.77,0.98,2.62,1.25c0.86,0.27,1.71,0.41,2.55,0.41c1.27,0,2.23-0.29,2.9-0.87
		C192.12,24.63,192.45,23.78,192.45,22.67z M188.31,15.53c0,0.69,0.19,1.24,0.58,1.66c0.39,0.41,0.91,0.62,1.57,0.62
		c0.66,0,1.19-0.2,1.59-0.62c0.4-0.41,0.59-0.96,0.59-1.66c0-0.68-0.2-1.24-0.6-1.66c-0.4-0.43-0.93-0.64-1.58-0.64
		c-0.64,0-1.16,0.21-1.56,0.63C188.5,14.28,188.31,14.84,188.31,15.53z"/>
	<path class="st3" d="M221.76,24.14V8.02h7.6v2.26c0.68-0.92,1.43-1.62,2.26-2.08c0.83-0.46,1.75-0.69,2.76-0.69
		c0.16,0,0.27,0,0.35,0.01c0.08,0.01,0.15,0.01,0.21,0.02v7.82c-0.44-0.24-0.84-0.42-1.2-0.53c-0.36-0.11-0.7-0.17-1-0.17
		c-1,0-1.77,0.27-2.31,0.81c-0.55,0.54-0.82,1.3-0.82,2.28v6.4H221.76z"/>
	<g class="st4">
		<g>
			<path class="st5" d="M43.07,24.14v-8.97l7.14-6.07c0,0,1.9-1.74,4.4-1.74c2.5,0,3.69,1.22,3.69,1.22l-5.83,5.29
				c0,0-0.8-0.85-1.78-0.13c-0.8,0.58-0.66,1.48-0.66,1.48v8.9H43.07z"/>
			<polygon class="st5" points="43.07,13.42 43.07,8.07 49.49,8.07 			"/>
			<path class="st5" d="M52.88,24.14V15.3l6.42-5.94c0,0,3.75-3.48,8.09-1.29c2.56,1.29,2.26,4.13,2.26,4.13v11.94h-6.9v-9.23
				c0,0,0.03-1.61-1.39-1.61c-1.54,0-1.49,1.61-1.49,1.61v9.23H52.88z"/>
		</g>
	</g>
	<path class="st3" d="M220,13.79c-0.23-0.82-0.58-1.56-1.05-2.24c-0.91-1.32-2.06-2.32-3.43-3.01c-1.37-0.69-2.92-1.04-4.64-1.04
		c-1.26,0-2.43,0.19-3.51,0.56c-1.08,0.37-2.05,0.93-2.91,1.67c-0.96,0.82-1.7,1.78-2.22,2.89c-0.52,1.11-0.79,2.27-0.79,3.5
		c0,1.22,0.26,2.37,0.78,3.48c0.52,1.1,1.26,2.07,2.23,2.91c0.86,0.73,1.84,1.28,2.92,1.66c1.09,0.38,2.25,0.57,3.5,0.57
		c2.24,0,4.14-0.47,5.69-1.42c1.55-0.95,2.64-2.3,3.27-4.05l-7.25-0.49c-0.16,0.41-0.37,0.72-0.64,0.94
		c-0.27,0.21-0.59,0.32-0.95,0.32c-0.6,0-1.05-0.2-1.35-0.6c-0.3-0.4-0.44-1.01-0.44-1.83v-0.25l11.12-0.02
		c0.01-0.09,0.02-0.2,0.02-0.33c0-0.12,0.01-0.31,0.01-0.56C220.35,15.5,220.23,14.61,220,13.79z M209.26,13.85
		c0.08-0.59,0.28-1.36,0.58-1.68c0.31-0.32,0.71-0.48,1.21-0.48c0.56,0,0.98,0.15,1.27,0.45c0.29,0.3,0.44,1.08,0.47,1.71
		L209.26,13.85z"/>
	<path class="st3" d="M89.64,13.79c-0.23-0.82-0.58-1.56-1.05-2.24c-0.91-1.32-2.06-2.32-3.43-3.01c-1.37-0.69-2.92-1.04-4.64-1.04
		c-1.26,0-2.43,0.19-3.51,0.56C75.93,8.44,74.96,9,74.1,9.74c-0.96,0.82-1.7,1.78-2.22,2.89c-0.52,1.11-0.79,2.27-0.79,3.5
		c0,1.22,0.26,2.37,0.78,3.48c0.52,1.1,1.26,2.07,2.23,2.91c0.86,0.73,1.84,1.28,2.92,1.66c1.09,0.38,2.25,0.57,3.5,0.57
		c2.24,0,4.14-0.47,5.69-1.42c1.55-0.95,2.64-2.3,3.27-4.05l-7.25-0.49c-0.16,0.41-0.37,0.72-0.64,0.94
		c-0.27,0.21-0.59,0.32-0.95,0.32c-0.6,0-1.05-0.2-1.35-0.6c-0.3-0.4-0.44-1.01-0.44-1.83v-0.25l11.12-0.02
		c0.01-0.09,0.02-0.2,0.02-0.33c0-0.12,0.01-0.31,0.01-0.56C89.99,15.5,89.88,14.61,89.64,13.79z M78.95,13.85
		c0.08-0.59,0.28-1.36,0.58-1.68c0.31-0.32,0.71-0.48,1.21-0.48c0.56,0,0.98,0.15,1.27,0.45c0.29,0.3,0.44,1.08,0.47,1.71
		L78.95,13.85z"/>
	<g class="st4">
		<path class="st6" d="M43,39.39h0.59c0.13,1.07,0.94,1.76,2.16,1.76c1.21,0,2.15-0.61,2.15-1.66c0-0.7-0.56-1.29-1.45-1.42
			l-1.26-0.18c-1.13-0.16-1.93-0.75-1.93-1.87c0-1.21,1.22-2.09,2.54-2.09c1.44,0,2.47,0.9,2.56,2.12H47.8
			c-0.15-1.05-0.99-1.6-2.03-1.6c-1.09,0-1.95,0.64-1.95,1.54c0,0.86,0.62,1.2,1.42,1.31l1.28,0.18c1.14,0.16,1.94,0.94,1.94,1.97
			c0,1.32-1.17,2.21-2.72,2.21C44.27,41.68,43.06,40.75,43,39.39z"/>
		<path class="st6" d="M50.76,40.16v-3.4h-1.24v-0.48h1.24v-1.45l0.52-0.12v1.57h1.65v0.48h-1.65v3.33c0,0.58,0.18,1.02,0.94,1.02
			c0.28,0,0.5-0.03,0.78-0.09v0.46c-0.26,0.08-0.52,0.13-0.82,0.13C51.16,41.6,50.76,41,50.76,40.16z"/>
		<path class="st6" d="M54.04,40.07c0-0.93,0.71-1.51,1.76-1.58l1.93-0.14v-0.46c0-0.88-0.64-1.26-1.45-1.26
			c-0.79,0-1.44,0.38-1.49,1.17h-0.52c0.07-1.08,0.94-1.66,1.99-1.66c1.2,0,1.99,0.59,1.99,1.79v2.59c0,0.36,0.05,0.57,0.41,0.57
			c0.04,0,0.1,0,0.15-0.01v0.46c-0.07,0.02-0.17,0.03-0.25,0.03c-0.65,0-0.83-0.49-0.83-1.05c-0.28,0.75-1.08,1.16-1.89,1.16
			C54.82,41.68,54.04,41.06,54.04,40.07z M57.73,39.1v-0.27l-1.88,0.12c-0.81,0.05-1.28,0.49-1.28,1.11c0,0.73,0.57,1.13,1.31,1.13
			C57.21,41.19,57.73,40.12,57.73,39.1z"/>
		<path class="st6" d="M60.26,36.28h0.48l0.04,1.01c0.27-0.72,1.09-1.15,1.83-1.15c1.2,0,1.86,0.8,1.86,1.96v3.43h-0.52v-3.38
			c0-0.88-0.45-1.5-1.39-1.5c-1.17,0-1.77,0.97-1.77,2.13v2.75h-0.52V36.28z"/>
		<path class="st6" d="M66.96,41.17c-0.61-0.51-0.88-1.35-0.88-2.26c0-0.86,0.27-1.67,0.84-2.2c0.37-0.35,0.88-0.58,1.53-0.58
			c0.85,0,1.5,0.47,1.74,1.06v-3.26h0.54v7.6h-0.49l-0.04-1c-0.29,0.7-1.06,1.14-1.78,1.14C67.79,41.68,67.32,41.48,66.96,41.17z
			 M69.52,40.73c0.49-0.45,0.68-1.1,0.68-1.83c0-0.78-0.18-1.39-0.67-1.84c-0.27-0.25-0.64-0.42-1.13-0.42
			c-0.5,0-0.89,0.18-1.18,0.47c-0.42,0.44-0.61,1.11-0.61,1.79c0,0.75,0.21,1.46,0.71,1.88c0.27,0.23,0.64,0.38,1.09,0.38
			C68.89,41.16,69.25,40.98,69.52,40.73z"/>
		<path class="st6" d="M72.32,40.07c0-0.93,0.71-1.51,1.76-1.58l1.93-0.14v-0.46c0-0.88-0.64-1.26-1.45-1.26
			c-0.79,0-1.44,0.38-1.49,1.17h-0.52c0.07-1.08,0.94-1.66,1.99-1.66c1.2,0,1.99,0.59,1.99,1.79v2.59c0,0.36,0.05,0.57,0.41,0.57
			c0.04,0,0.11,0,0.15-0.01v0.46c-0.07,0.02-0.17,0.03-0.25,0.03c-0.65,0-0.83-0.49-0.83-1.05c-0.28,0.75-1.08,1.16-1.89,1.16
			C73.11,41.68,72.32,41.06,72.32,40.07z M76.02,39.1v-0.27l-1.88,0.12c-0.81,0.05-1.28,0.49-1.28,1.11c0,0.73,0.57,1.13,1.31,1.13
			C75.49,41.19,76.02,40.12,76.02,39.1z"/>
		<path class="st6" d="M78.55,36.28h0.48l0.04,1.08c0.23-0.73,0.94-1.13,1.69-1.13c0.16,0,0.34,0,0.49,0.05v0.5
			c-0.17-0.04-0.35-0.05-0.51-0.05c-1.22,0-1.67,1.01-1.67,2.17v2.62h-0.53V36.28z"/>
		<path class="st6" d="M83.01,41.17c-0.61-0.51-0.88-1.35-0.88-2.26c0-0.86,0.27-1.67,0.84-2.2c0.37-0.35,0.88-0.58,1.53-0.58
			c0.85,0,1.5,0.47,1.74,1.06v-3.26h0.54v7.6h-0.49l-0.04-1c-0.29,0.7-1.06,1.14-1.79,1.14C83.84,41.68,83.37,41.48,83.01,41.17z
			 M85.57,40.73c0.49-0.45,0.68-1.1,0.68-1.83c0-0.78-0.18-1.39-0.67-1.84c-0.27-0.25-0.64-0.42-1.13-0.42
			c-0.5,0-0.89,0.18-1.18,0.47c-0.42,0.44-0.61,1.11-0.61,1.79c0,0.75,0.21,1.46,0.71,1.88c0.27,0.23,0.64,0.38,1.09,0.38
			C84.94,41.16,85.3,40.98,85.57,40.73z"/>
		<path class="st6" d="M88.32,39.93h0.54c0.08,0.86,0.77,1.24,1.63,1.24c0.87,0,1.52-0.38,1.52-1.09c0-0.46-0.33-0.85-0.97-0.93
			l-1.02-0.14c-0.88-0.12-1.48-0.54-1.48-1.33c0-0.93,0.9-1.54,1.89-1.54c1.13,0,1.95,0.65,1.98,1.6h-0.52
			c-0.07-0.76-0.69-1.1-1.46-1.1c-0.77,0-1.35,0.41-1.35,1c0,0.43,0.23,0.76,1.02,0.86l1,0.14c0.99,0.14,1.45,0.8,1.45,1.43
			c0,1.07-0.97,1.63-2.06,1.63C89.23,41.68,88.37,41.01,88.32,39.93z"/>
		<path class="st6" d="M97,36.76h-1.11v-0.48H97v-0.89c0-0.8,0.5-1.5,1.51-1.5c0.3,0,0.55,0.03,0.75,0.08v0.47
			c-0.19-0.05-0.4-0.08-0.7-0.08c-0.68,0-1.03,0.38-1.03,1.05v0.87h1.63v0.48h-1.63v4.77H97V36.76z"/>
		<path class="st6" d="M100.8,41.06c-0.58-0.56-0.8-1.25-0.8-2.15c0-0.89,0.22-1.6,0.8-2.15c0.38-0.36,0.9-0.62,1.57-0.62
			s1.2,0.26,1.57,0.62c0.58,0.56,0.8,1.26,0.8,2.15c0,0.9-0.22,1.6-0.8,2.15c-0.38,0.36-0.9,0.62-1.57,0.62
			S101.18,41.41,100.8,41.06z M103.59,40.7c0.49-0.48,0.63-1.1,0.63-1.79c0-0.68-0.14-1.31-0.63-1.8c-0.28-0.28-0.68-0.46-1.21-0.46
			s-0.92,0.18-1.21,0.46c-0.49,0.48-0.63,1.11-0.63,1.8c0,0.69,0.14,1.31,0.63,1.79c0.28,0.28,0.68,0.46,1.21,0.46
			S103.3,40.98,103.59,40.7z"/>
		<path class="st6" d="M106.41,36.28h0.48l0.04,1.08c0.23-0.73,0.95-1.13,1.69-1.13c0.16,0,0.34,0,0.49,0.05v0.5
			c-0.17-0.04-0.35-0.05-0.51-0.05c-1.22,0-1.67,1.01-1.67,2.17v2.62h-0.52V36.28z"/>
		<path class="st6" d="M112.27,43.58v-0.51c0.19,0.09,0.42,0.16,0.68,0.16c0.5,0,0.82-0.23,1.06-0.84l0.3-0.77l-2.14-5.33h0.58
			l1.82,4.66l1.75-4.66h0.56l-2.4,6.28c-0.33,0.85-0.8,1.17-1.49,1.17C112.64,43.72,112.35,43.63,112.27,43.58z"/>
		<path class="st6" d="M118.5,41.06c-0.58-0.56-0.8-1.25-0.8-2.15c0-0.89,0.22-1.6,0.8-2.15c0.38-0.36,0.9-0.62,1.57-0.62
			s1.2,0.26,1.58,0.62c0.58,0.56,0.8,1.26,0.8,2.15c0,0.9-0.22,1.6-0.8,2.15c-0.38,0.36-0.9,0.62-1.58,0.62
			S118.88,41.41,118.5,41.06z M121.28,40.7c0.49-0.48,0.63-1.1,0.63-1.79c0-0.68-0.14-1.31-0.63-1.8c-0.28-0.28-0.68-0.46-1.21-0.46
			s-0.92,0.18-1.21,0.46c-0.49,0.48-0.63,1.11-0.63,1.8c0,0.69,0.14,1.31,0.63,1.79c0.28,0.28,0.68,0.46,1.21,0.46
			S121,40.98,121.28,40.7z"/>
		<path class="st6" d="M124.06,39.67v-3.39h0.53v3.36c0,0.91,0.45,1.52,1.38,1.52c1.22,0,1.72-0.98,1.72-2.15v-2.73h0.52v5.25h-0.48
			l-0.04-0.99c-0.29,0.69-0.97,1.13-1.75,1.13C124.74,41.68,124.06,40.85,124.06,39.67z"/>
		<path class="st6" d="M130.15,36.28h0.48l0.04,1.08c0.23-0.73,0.95-1.13,1.69-1.13c0.16,0,0.34,0,0.49,0.05v0.5
			c-0.17-0.04-0.35-0.05-0.51-0.05c-1.22,0-1.67,1.01-1.67,2.17v2.62h-0.52V36.28z"/>
		<path class="st6" d="M136.18,39.93h0.54c0.08,0.86,0.77,1.24,1.63,1.24c0.87,0,1.52-0.38,1.52-1.09c0-0.46-0.33-0.85-0.97-0.93
			l-1.02-0.14c-0.88-0.12-1.48-0.54-1.48-1.33c0-0.93,0.9-1.54,1.89-1.54c1.13,0,1.95,0.65,1.98,1.6h-0.53
			c-0.07-0.76-0.69-1.1-1.46-1.1c-0.77,0-1.35,0.41-1.35,1c0,0.43,0.23,0.76,1.02,0.86l1,0.14c0.99,0.14,1.45,0.8,1.45,1.43
			c0,1.07-0.96,1.63-2.06,1.63C137.09,41.68,136.23,41.01,136.18,39.93z"/>
		<path class="st6" d="M141.92,39.67v-3.39h0.53v3.36c0,0.91,0.45,1.52,1.38,1.52c1.22,0,1.72-0.98,1.72-2.15v-2.73h0.53v5.25h-0.48
			l-0.04-0.99c-0.29,0.69-0.97,1.13-1.75,1.13C142.6,41.68,141.92,40.85,141.92,39.67z"/>
		<path class="st6" d="M148.49,41.05c-0.56-0.56-0.76-1.25-0.76-2.14c0-0.9,0.19-1.61,0.76-2.15c0.38-0.37,0.91-0.62,1.58-0.62
			c1.11,0,1.96,0.68,2.09,1.77h-0.56c-0.12-0.72-0.71-1.26-1.53-1.26c-0.51,0-0.92,0.17-1.21,0.45c-0.49,0.49-0.6,1.11-0.6,1.81
			c0,0.68,0.12,1.3,0.61,1.79c0.28,0.28,0.69,0.45,1.21,0.45c0.82,0,1.42-0.54,1.53-1.26h0.54c-0.14,1.08-0.99,1.77-2.09,1.77
			C149.4,41.67,148.87,41.42,148.49,41.05z"/>
		<path class="st6" d="M154.21,41.05c-0.56-0.56-0.76-1.25-0.76-2.14c0-0.9,0.19-1.61,0.76-2.15c0.38-0.37,0.91-0.62,1.58-0.62
			c1.11,0,1.96,0.68,2.09,1.77h-0.56c-0.12-0.72-0.71-1.26-1.53-1.26c-0.51,0-0.92,0.17-1.21,0.45c-0.49,0.49-0.6,1.11-0.6,1.81
			c0,0.68,0.12,1.3,0.61,1.79c0.28,0.28,0.69,0.45,1.21,0.45c0.82,0,1.42-0.54,1.53-1.26h0.54c-0.14,1.08-0.99,1.77-2.09,1.77
			C155.12,41.67,154.59,41.42,154.21,41.05z"/>
		<path class="st6" d="M159.86,40.94c-0.43-0.5-0.69-1.22-0.69-2.02c0-0.66,0.11-1.31,0.53-1.87c0.45-0.6,1.07-0.92,1.84-0.92
			c1.45,0,2.32,1.15,2.32,2.55c0,0.13,0,0.2-0.01,0.35h-4.15c0.02,1.17,0.7,2.14,1.88,2.14c0.83,0,1.48-0.55,1.61-1.22h0.55
			c-0.16,0.99-1.1,1.72-2.15,1.72C160.81,41.68,160.2,41.34,159.86,40.94z M163.3,38.56c-0.02-1-0.64-1.93-1.77-1.93
			c-1.11,0-1.81,0.9-1.83,1.93H163.3z"/>
		<path class="st6" d="M165.06,39.93h0.54c0.08,0.86,0.77,1.24,1.63,1.24c0.87,0,1.52-0.38,1.52-1.09c0-0.46-0.33-0.85-0.97-0.93
			l-1.02-0.14c-0.88-0.12-1.48-0.54-1.48-1.33c0-0.93,0.9-1.54,1.89-1.54c1.13,0,1.95,0.65,1.98,1.6h-0.52
			c-0.07-0.76-0.69-1.1-1.46-1.1s-1.35,0.41-1.35,1c0,0.43,0.23,0.76,1.02,0.86l1,0.14c0.99,0.14,1.45,0.8,1.45,1.43
			c0,1.07-0.97,1.63-2.06,1.63C165.97,41.68,165.11,41.01,165.06,39.93z"/>
		<path class="st6" d="M170.53,39.93h0.54c0.08,0.86,0.77,1.24,1.63,1.24c0.87,0,1.52-0.38,1.52-1.09c0-0.46-0.33-0.85-0.97-0.93
			l-1.02-0.14c-0.88-0.12-1.48-0.54-1.48-1.33c0-0.93,0.9-1.54,1.89-1.54c1.13,0,1.95,0.65,1.98,1.6h-0.53
			c-0.07-0.76-0.69-1.1-1.46-1.1c-0.77,0-1.35,0.41-1.35,1c0,0.43,0.23,0.76,1.02,0.86l1,0.14c0.99,0.14,1.45,0.8,1.45,1.43
			c0,1.07-0.96,1.63-2.06,1.63C171.44,41.68,170.58,41.01,170.53,39.93z"/>
		<path class="st6" d="M177.26,40.58v0.94h-0.92v-0.94H177.26z"/>
	</g>
</g>
</svg>
