<svg xmlns="http://www.w3.org/2000/svg" xmlns:xlink="http://www.w3.org/1999/xlink" width="500" zoomAndPan="magnify" viewBox="0 0 375 374.999991" height="500" preserveAspectRatio="xMidYMid meet" version="1.0"><defs><g/><clipPath id="05e6fe7769"><path d="M 50.949219 163.75 L 122.199219 163.75 L 122.199219 233.5 L 50.949219 233.5 Z M 50.949219 163.75 " clip-rule="nonzero"/></clipPath></defs><g clip-path="url(#05e6fe7769)"><path fill="#0aa84a" d="M 113.171875 189.511719 L 113.171875 180.929688 L 104.175781 180.929688 L 104.175781 172.339844 L 95.175781 172.339844 L 95.175781 163.75 L 50.976562 163.75 L 50.976562 207.726562 L 59.976562 207.726562 L 59.976562 216.316406 L 68.972656 216.316406 L 68.972656 224.90625 L 77.972656 224.90625 L 77.972656 233.5 L 122.171875 233.5 L 122.171875 189.511719 Z M 112.542969 181.554688 L 112.542969 189.511719 L 104.175781 189.511719 L 104.175781 181.558594 Z M 68.972656 207.097656 L 60.605469 207.097656 L 60.605469 172.96875 L 94.535156 172.96875 L 94.535156 180.929688 L 68.972656 180.929688 Z M 69.605469 181.558594 L 94.53125 181.558594 L 94.53125 189.511719 L 77.980469 189.511719 L 77.980469 207.097656 L 69.605469 207.097656 Z M 95.160156 181.558594 L 103.527344 181.558594 L 103.527344 189.511719 L 95.160156 189.511719 Z M 94.53125 190.148438 L 94.53125 207.097656 L 78.613281 207.097656 L 78.613281 190.140625 Z M 77.980469 207.726562 L 77.980469 215.6875 L 69.605469 215.6875 L 69.605469 207.726562 Z M 78.613281 207.726562 L 95.167969 207.726562 L 95.167969 190.140625 L 103.535156 190.140625 L 103.535156 215.6875 L 78.613281 215.6875 Z M 104.175781 216.316406 L 104.175781 190.140625 L 112.542969 190.140625 L 112.542969 224.277344 L 78.613281 224.277344 L 78.613281 216.316406 Z M 103.542969 172.96875 L 103.542969 180.929688 L 95.175781 180.929688 L 95.175781 172.96875 Z M 51.609375 207.097656 L 51.609375 164.378906 L 94.535156 164.378906 L 94.535156 172.339844 L 59.976562 172.339844 L 59.976562 207.097656 Z M 60.605469 215.6875 L 60.605469 207.726562 L 68.972656 207.726562 L 68.972656 215.6875 Z M 69.605469 224.277344 L 69.605469 216.316406 L 77.972656 216.316406 L 77.972656 224.277344 Z M 121.539062 232.871094 L 78.613281 232.871094 L 78.613281 224.90625 L 113.171875 224.90625 L 113.171875 190.140625 L 121.539062 190.140625 Z M 121.539062 232.871094 " fill-opacity="1" fill-rule="nonzero"/></g><g fill="#212225" fill-opacity="1"><g transform="translate(132.727964, 210.742429)"><g><path d="M 1.636719 0 L 8.988281 0 L 12.558594 -6.511719 L 31.289062 -6.511719 L 34.859375 0 L 42.210938 0 L 26.207031 -29.398438 L 17.640625 -29.398438 Z M 15.121094 -11.632812 L 21.925781 -23.980469 L 28.726562 -11.632812 Z M 15.121094 -11.632812 "/></g></g></g><g fill="#212225" fill-opacity="1"><g transform="translate(177.205953, 210.742429)"><g><path d="M 2.058594 0 L 8.484375 0 L 8.484375 -5.125 L 2.058594 -5.125 Z M 2.058594 0 "/></g></g></g><g fill="#212225" fill-opacity="1"><g transform="translate(188.377952, 210.742429)"><g><path d="M 20.117188 0.421875 C 31.835938 0.421875 37.632812 -4.199219 38.472656 -12.433594 L 31.753906 -12.433594 C 30.996094 -7.183594 26.839844 -5.164062 20.117188 -5.164062 C 12.179688 -5.164062 8.273438 -7.9375 8.273438 -14.742188 C 8.273438 -21.503906 12.136719 -24.234375 20.117188 -24.234375 C 26.878906 -24.234375 30.996094 -22.261719 31.753906 -17.050781 L 38.429688 -17.050781 C 37.632812 -25.242188 31.835938 -29.820312 20.117188 -29.820312 C 7.183594 -29.820312 1.636719 -24.316406 1.636719 -14.742188 C 1.636719 -5.125 7.183594 0.421875 20.117188 0.421875 Z M 20.117188 0.421875 "/></g></g></g><g fill="#212225" fill-opacity="1"><g transform="translate(229.11795, 210.742429)"><g><path d="M 2.058594 0 L 8.484375 0 L 8.484375 -5.125 L 2.058594 -5.125 Z M 2.058594 0 "/></g></g></g><g fill="#212225" fill-opacity="1"><g transform="translate(240.289946, 210.742429)"><g><path d="M 1.636719 0 L 8.988281 0 L 12.558594 -6.511719 L 31.289062 -6.511719 L 34.859375 0 L 42.210938 0 L 26.207031 -29.398438 L 17.640625 -29.398438 Z M 15.121094 -11.632812 L 21.925781 -23.980469 L 28.726562 -11.632812 Z M 15.121094 -11.632812 "/></g></g></g><g fill="#212225" fill-opacity="1"><g transform="translate(284.767933, 210.742429)"><g><path d="M 2.058594 0 L 8.484375 0 L 8.484375 -5.125 L 2.058594 -5.125 Z M 2.058594 0 "/></g></g></g><g fill="#212225" fill-opacity="1"><g transform="translate(295.939929, 210.742429)"><g><path d="M 2.058594 0 L 8.695312 0 L 8.695312 -5.628906 L 19.066406 -12.851562 L 32.84375 0 L 42.042969 0 L 24.066406 -16.546875 L 42.042969 -29.398438 L 31.710938 -29.398438 L 8.695312 -13.144531 L 8.695312 -29.398438 L 2.058594 -29.398438 Z M 2.058594 0 "/></g></g></g><g fill="#212225" fill-opacity="1"><g transform="translate(340.249916, 210.742429)"><g><path d="M 2.058594 0 L 8.484375 0 L 8.484375 -5.125 L 2.058594 -5.125 Z M 2.058594 0 "/></g></g></g></svg>